<svg version="1.1" id="Layer_1" xmlns="http://www.w3.org/2000/svg" xmlns:xlink="http://www.w3.org/1999/xlink" x="0px" y="0px"
	 width="100%" viewBox="0 0 512 512" enable-background="new 0 0 512 512" xml:space="preserve">
<path fill="#000000" opacity="1.000000" stroke="none" 
	d="
M350.000000,513.000000 
	C233.361679,513.000000 117.223351,513.000000 1.042510,513.000000 
	C1.042510,342.403320 1.042510,171.806625 1.042510,1.104965 
	C171.554993,1.104965 342.110077,1.104965 512.832581,1.104965 
	C512.832581,171.666534 512.832581,342.333252 512.832581,513.000000 
	C458.806549,513.000000 404.653290,513.000000 350.000000,513.000000 
M196.500122,350.001556 
	C203.743759,359.761810 210.895447,369.593109 218.323212,379.211182 
	C219.535202,380.780548 221.951340,382.302826 223.836380,382.334595 
	C245.322250,382.696503 266.813049,382.769714 288.302673,382.898254 
	C289.566589,382.905823 290.831665,382.726746 292.385681,382.613434 
	C292.385681,378.706238 292.385681,375.147491 292.385681,371.484619 
	C290.940857,371.279663 289.974915,371.042908 289.003876,371.019623 
	C269.786163,370.558929 254.812485,362.880096 243.166168,347.062378 
	C221.251755,317.298737 198.434250,288.200104 175.998917,258.819824 
	C170.871628,252.105377 165.771591,245.370132 160.543381,238.492371 
	C170.778778,227.910156 180.671036,217.559204 190.700027,207.342484 
	C206.222275,191.529709 221.737976,175.708069 237.452667,160.087570 
	C246.372284,151.221390 256.827606,144.935318 269.583099,143.195374 
	C273.650879,142.640503 277.716919,142.072952 281.724426,141.519394 
	C281.724426,137.519470 281.724426,133.947678 281.724426,130.498917 
	C250.410065,130.498917 219.496246,130.498917 188.430725,130.498917 
	C188.430725,134.257416 188.430725,137.934219 188.430725,141.557495 
	C192.054749,141.972275 195.199982,142.276855 198.328156,142.705902 
	C201.458527,143.135223 204.619354,143.490921 207.683563,144.225937 
	C216.231644,146.276337 218.148193,150.663406 213.214310,157.856384 
	C209.745544,162.913406 205.782501,167.697784 201.585709,172.178192 
	C175.729538,199.781570 149.739563,227.259567 123.817955,254.801712 
	C122.729988,255.957672 121.878334,257.336029 120.916603,258.610779 
	C119.674248,256.413391 119.499718,254.999481 119.499054,253.585495 
	C119.485954,225.925934 119.469963,198.266327 119.521027,170.606857 
	C119.528709,166.445877 119.716248,162.271835 120.087517,158.127747 
	C120.857323,149.535217 123.567680,146.249664 132.052109,144.586990 
	C139.211136,143.184082 146.497513,142.431015 154.069824,141.341049 
	C154.069824,137.717773 154.069824,134.021835 154.069824,130.498840 
	C117.065422,130.498840 80.622108,130.498840 44.102829,130.498840 
	C44.102829,134.195190 44.102829,137.905014 44.102829,141.279770 
	C52.216743,142.516312 59.823994,143.395706 67.307526,144.893311 
	C75.105515,146.453842 78.093979,149.902298 78.901451,157.759369 
	C79.496460,163.548950 79.881310,169.388092 79.888817,175.205750 
	C79.960663,230.858047 79.952530,286.510498 79.895180,342.162811 
	C79.890388,346.813416 79.535728,351.482513 79.034103,356.109497 
	C78.212593,363.687073 75.511421,366.652527 67.903381,367.997772 
	C60.059677,369.384674 52.148605,370.390625 44.049164,371.595673 
	C44.049164,375.294312 44.049164,378.995148 44.049164,382.501160 
	C80.958351,382.501160 117.390778,382.501160 154.003540,382.501160 
	C154.003540,378.778320 154.003540,375.084564 154.003540,371.748688 
	C145.627426,370.428741 137.882446,369.388367 130.215454,367.936279 
	C125.170204,366.980713 122.069931,363.622406 121.055740,358.538696 
	C120.600739,356.257996 120.080589,353.938721 120.055031,351.631836 
	C119.809532,329.475433 119.653648,307.318054 119.517136,285.160645 
	C119.510201,284.035522 119.539864,282.582153 120.189018,281.833710 
	C124.710632,276.620331 129.400467,271.552887 134.244156,266.209412 
	C155.162766,294.374573 175.610596,321.905884 196.500122,350.001556 
M379.426544,225.090042 
	C373.034088,220.910980 366.362000,217.099365 360.299957,212.486130 
	C339.474762,196.638107 340.847565,157.738770 370.153503,145.274551 
	C398.378693,133.270004 425.755188,142.622406 438.969482,170.079910 
	C442.197998,176.788361 444.663574,183.900833 447.031219,190.977676 
	C450.208313,200.473755 450.021820,200.541580 459.856934,199.031067 
	C460.303131,198.962524 460.711700,198.648788 461.160187,198.438782 
	C460.031433,175.971313 458.907562,153.601242 457.812469,131.803940 
	C449.350037,131.295883 441.361603,131.221542 433.481750,130.258499 
	C417.283600,128.278809 401.156067,125.459709 384.745789,127.008591 
	C363.608063,129.003647 344.745361,136.020782 329.206055,151.220398 
	C307.201721,172.743729 298.799225,224.419235 338.923523,250.011322 
	C342.983459,252.600845 347.108398,255.159073 351.439026,257.241180 
	C368.809174,265.592590 386.463959,273.376099 403.613159,282.151886 
	C411.213409,286.041168 418.634735,290.981842 424.788818,296.857635 
	C440.372101,311.736267 441.256226,338.459625 427.574799,355.155029 
	C411.581238,374.671936 376.517853,379.653870 353.432007,365.615692 
	C339.052063,356.871399 330.875519,343.309723 325.090332,328.102753 
	C322.512024,321.325317 320.669342,314.268066 318.621429,307.747375 
	C314.822571,307.747375 311.286713,307.747375 307.731079,307.747375 
	C308.831116,332.079803 309.905060,355.835327 310.987823,379.785736 
	C313.455017,380.025208 315.924683,380.235443 318.387360,380.508636 
	C339.052612,382.801178 359.666565,385.937012 380.394287,387.183746 
	C403.458527,388.571045 424.835449,382.441925 443.664948,368.398926 
	C477.072723,343.483521 478.606934,294.134277 456.865234,269.650391 
	C447.854950,259.503601 436.909332,252.039124 424.838104,246.219543 
	C410.022614,239.076950 395.006897,232.349579 379.426544,225.090042 
z"/>
<path fill="#FDA9A9" opacity="1.000000" stroke="none" 
	d="
M196.279266,349.719360 
	C175.610596,321.905884 155.162766,294.374573 134.244156,266.209412 
	C129.400467,271.552887 124.710632,276.620331 120.189018,281.833710 
	C119.539864,282.582153 119.510201,284.035522 119.517136,285.160645 
	C119.653648,307.318054 119.809532,329.475433 120.055031,351.631836 
	C120.080589,353.938721 120.600739,356.257996 121.055740,358.538696 
	C122.069931,363.622406 125.170204,366.980713 130.215454,367.936279 
	C137.882446,369.388367 145.627426,370.428741 154.003540,371.748688 
	C154.003540,375.084564 154.003540,378.778320 154.003540,382.501160 
	C117.390778,382.501160 80.958351,382.501160 44.049164,382.501160 
	C44.049164,378.995148 44.049164,375.294312 44.049164,371.595673 
	C52.148605,370.390625 60.059677,369.384674 67.903381,367.997772 
	C75.511421,366.652527 78.212593,363.687073 79.034103,356.109497 
	C79.535728,351.482513 79.890388,346.813416 79.895180,342.162811 
	C79.952530,286.510498 79.960663,230.858047 79.888817,175.205750 
	C79.881310,169.388092 79.496460,163.548950 78.901451,157.759369 
	C78.093979,149.902298 75.105515,146.453842 67.307526,144.893311 
	C59.823994,143.395706 52.216743,142.516312 44.102829,141.279770 
	C44.102829,137.905014 44.102829,134.195190 44.102829,130.498840 
	C80.622108,130.498840 117.065422,130.498840 154.069824,130.498840 
	C154.069824,134.021835 154.069824,137.717773 154.069824,141.341049 
	C146.497513,142.431015 139.211136,143.184082 132.052109,144.586990 
	C123.567680,146.249664 120.857323,149.535217 120.087517,158.127747 
	C119.716248,162.271835 119.528709,166.445877 119.521027,170.606857 
	C119.469963,198.266327 119.485954,225.925934 119.499054,253.585495 
	C119.499718,254.999481 119.674248,256.413391 120.916603,258.610779 
	C121.878334,257.336029 122.729988,255.957672 123.817955,254.801712 
	C149.739563,227.259567 175.729538,199.781570 201.585709,172.178192 
	C205.782501,167.697784 209.745544,162.913406 213.214310,157.856384 
	C218.148193,150.663406 216.231644,146.276337 207.683563,144.225937 
	C204.619354,143.490921 201.458527,143.135223 198.328156,142.705902 
	C195.199982,142.276855 192.054749,141.972275 188.430725,141.557495 
	C188.430725,137.934219 188.430725,134.257416 188.430725,130.498917 
	C219.496246,130.498917 250.410065,130.498917 281.724426,130.498917 
	C281.724426,133.947678 281.724426,137.519470 281.724426,141.519394 
	C277.716919,142.072952 273.650879,142.640503 269.583099,143.195374 
	C256.827606,144.935318 246.372284,151.221390 237.452667,160.087570 
	C221.737976,175.708069 206.222275,191.529709 190.700027,207.342484 
	C180.671036,217.559204 170.778778,227.910156 160.543381,238.492371 
	C165.771591,245.370132 170.871628,252.105377 175.998917,258.819824 
	C198.434250,288.200104 221.251755,317.298737 243.166168,347.062378 
	C254.812485,362.880096 269.786163,370.558929 289.003876,371.019623 
	C289.974915,371.042908 290.940857,371.279663 292.385681,371.484619 
	C292.385681,375.147491 292.385681,378.706238 292.385681,382.613434 
	C290.831665,382.726746 289.566589,382.905823 288.302673,382.898254 
	C266.813049,382.769714 245.322250,382.696503 223.836380,382.334595 
	C221.951340,382.302826 219.535202,380.780548 218.323212,379.211182 
	C210.895447,369.593109 203.743759,359.761810 196.279266,349.719360 
z"/>
<path fill="#FDA8A8" opacity="1.000000" stroke="none" 
	d="
M379.752136,225.266373 
	C395.006897,232.349579 410.022614,239.076950 424.838104,246.219543 
	C436.909332,252.039124 447.854950,259.503601 456.865234,269.650391 
	C478.606934,294.134277 477.072723,343.483521 443.664948,368.398926 
	C424.835449,382.441925 403.458527,388.571045 380.394287,387.183746 
	C359.666565,385.937012 339.052612,382.801178 318.387360,380.508636 
	C315.924683,380.235443 313.455017,380.025208 310.987823,379.785736 
	C309.905060,355.835327 308.831116,332.079803 307.731079,307.747375 
	C311.286713,307.747375 314.822571,307.747375 318.621429,307.747375 
	C320.669342,314.268066 322.512024,321.325317 325.090332,328.102753 
	C330.875519,343.309723 339.052063,356.871399 353.432007,365.615692 
	C376.517853,379.653870 411.581238,374.671936 427.574799,355.155029 
	C441.256226,338.459625 440.372101,311.736267 424.788818,296.857635 
	C418.634735,290.981842 411.213409,286.041168 403.613159,282.151886 
	C386.463959,273.376099 368.809174,265.592590 351.439026,257.241180 
	C347.108398,255.159073 342.983459,252.600845 338.923523,250.011322 
	C298.799225,224.419235 307.201721,172.743729 329.206055,151.220398 
	C344.745361,136.020782 363.608063,129.003647 384.745789,127.008591 
	C401.156067,125.459709 417.283600,128.278809 433.481750,130.258499 
	C441.361603,131.221542 449.350037,131.295883 457.812469,131.803940 
	C458.907562,153.601242 460.031433,175.971313 461.160187,198.438782 
	C460.711700,198.648788 460.303131,198.962524 459.856934,199.031067 
	C450.021820,200.541580 450.208313,200.473755 447.031219,190.977676 
	C444.663574,183.900833 442.197998,176.788361 438.969482,170.079910 
	C425.755188,142.622406 398.378693,133.270004 370.153503,145.274551 
	C340.847565,157.738770 339.474762,196.638107 360.299957,212.486130 
	C366.362000,217.099365 373.034088,220.910980 379.752136,225.266373 
z"/>
</svg>